<svg xmlns="http://www.w3.org/2000/svg" xmlns:xlink="http://www.w3.org/1999/xlink">

  <symbol id="chip_1" viewBox="0 0 50 50">
    <g transform="matrix(.98973 0 0 .9838 -67.032 -5.603)">
    <ellipse ry="25.147" rx="24.995" cy="31.107" cx="92.987" fill="#fff" stroke="#000" stroke-width=".529"/>
    <circle cx="92.987" cy="31.107" r="20.418" fill="none" stroke="#000" stroke-width="4.161" stroke-dasharray="12.48186394,12.48186394"/>
    <g style="line-height:1.25">
      <path style="-inkscape-font-specification:'FreeSans, Normal';font-variant-ligatures:normal;font-variant-caps:normal;font-variant-numeric:normal;font-feature-settings:normal;text-align:start" d="M92.261 26.312h-6.457v-1.427q4.195-.294 5.47-.815 1.275-.52 2.221-2.378h2.385V37.75h-3.619z" aria-label="1" font-weight="400" font-size="30.519" letter-spacing="0" word-spacing="0" font-family="FreeSans"/>
    </g>
  </g>
  </symbol>

  <symbol id="chip_5" viewBox="0 0 50 50">
    <g transform="translate(0 -58.81)">
    <circle cx="25" cy="83.81" r="24.74" fill="#d80000" stroke="#000" stroke-width=".52"/>
    <ellipse cy="83.81" cx="25" rx="20.21" ry="20.09" fill="none" stroke="#fff" stroke-width="4.11" stroke-dasharray="12.31663134,12.31663134"/>
    <g style="line-height:1.25">
      <path d="M32.93 73.68v2.01H23.5l-.9 4.57q1.9-1 4.2-1 3.25 0 5.27 1.53 2.04 1.5 2.04 3.92 0 2.59-2.17 4.23-2.18 1.64-5.6 1.64-1.3 0-2.42-.21-1.1-.2-1.82-.49-.7-.3-1.32-.76-.57-.48-.89-.83-.29-.37-.58-.9-.25-.55-.31-.76-.07-.2-.17-.6h2.82q.99 2.75 4.63 2.75 2.3 0 3.61-1.02 1.34-1.01 1.34-2.77 0-1.82-1.34-2.86-1.34-1.06-3.6-1.06-1.32 0-2.25.34-.92.33-1.91 1.18h-2.6l1.7-8.9z" style="-inkscape-font-specification:'FreeSans, Normal';font-variant-ligatures:normal;font-variant-caps:normal;font-variant-numeric:normal;font-feature-settings:normal;text-align:start" aria-label="5" font-weight="400" font-size="27.52" letter-spacing="0" word-spacing="0" font-family="FreeSans" fill="#fff"/>
    </g>
  </g>
  </symbol>

  <symbol id="chip_25" viewBox="0 0 50 50">
   <g transform="translate(0 -58.81)">
    <circle cx="25" cy="83.81" r="24.74" fill="#009e00" stroke="#000006" stroke-width=".52"/>
    <ellipse cx="25" cy="83.81" rx="20.21" ry="20.09" fill="none" stroke="#fff" stroke-width="4.11" stroke-dasharray="12.31663134,12.31663134"/>
    <g style="line-height:1.25">
      <path d="M13.44 80.96q.17-4.48 5.67-4.48 2.45 0 3.98 1.06 1.53 1.05 1.53 2.72 0 2.4-3.64 3.9l-2.42.98q-1.58.64-2.26 1.24-.68.6-.85 1.41h9.05v1.59H13.05q.14-2.13 1.14-3.28 1-1.16 3.69-2.3l2.23-.95q2.33-1 2.33-2.55 0-1.04-.97-1.73t-2.43-.69q-3.23 0-3.47 3.08zm23.84-4.48v1.58h-7.16l-.68 3.6q1.43-.78 3.18-.78 2.47 0 4 1.2 1.55 1.19 1.55 3.1 0 2.03-1.65 3.32-1.65 1.3-4.24 1.3-1 0-1.85-.17-.82-.16-1.38-.38-.53-.24-1-.6-.43-.38-.67-.65-.22-.3-.44-.71-.2-.44-.24-.6l-.12-.48h2.13q.75 2.17 3.52 2.17 1.75 0 2.74-.8 1.02-.8 1.02-2.19 0-1.43-1.02-2.25-1.02-.84-2.74-.84-1 0-1.7.28-.7.25-1.45.92H27.1l1.29-7.02z" style="-inkscape-font-specification:'FreeSans, Normal';font-variant-ligatures:normal;font-variant-caps:normal;font-variant-numeric:normal;font-feature-settings:normal;text-align:start" aria-label="25" font-weight="400" font-size="21.29" letter-spacing="0" word-spacing="0" font-family="FreeSans" fill="#fff" stroke-width=".53"/>
    </g>
  </g>
  </symbol>

  <symbol id="chip_100" viewBox="0 0 50 50">
    <g transform="matrix(.98973 0 0 .9838 -6.28 -67.03)">
    <ellipse ry="25.15" rx="25" cy="93.55" cx="31.6" stroke="#000" stroke-width=".53"/>
    <circle cx="31.6" cy="93.55" r="20.42" fill="none" stroke="#fff" stroke-width="4.16" stroke-dasharray="12.48186394,12.48186394"/>
    <g style="line-height:1.25">
      <path style="-inkscape-font-specification:'FreeSans, Normal';font-variant-ligatures:normal;font-variant-caps:normal;font-variant-numeric:normal;font-feature-settings:normal;text-align:start" d="M20.47 90.04h-2.79v-.89q1.81-.18 2.36-.5.55-.33.96-1.5h1.03V97.2h-1.56zm6.04 2.3q0-1.26.26-2.23.27-.96.68-1.5.4-.55.97-.89.57-.34 1.09-.45.53-.11 1.11-.11 4.12 0 4.12 5.26 0 2.48-1.07 3.8-1.04 1.3-3.05 1.3-2.02 0-3.07-1.32-1.04-1.33-1.04-3.86zm6.63-.03q0-4.05-2.52-4.05-2.51 0-2.51 4.09 0 4.13 2.48 4.13 1.31 0 1.93-1.02.62-1.02.62-3.15zm3.24.03q0-1.26.27-2.23.27-.96.67-1.5.41-.55.98-.89.57-.34 1.08-.45.53-.11 1.12-.11 4.11 0 4.11 5.26 0 2.48-1.06 3.8-1.05 1.3-3.05 1.3-2.02 0-3.07-1.32-1.05-1.33-1.05-3.86zm6.64-.03q0-4.05-2.52-4.05t-2.52 4.09q0 4.13 2.48 4.13 1.31 0 1.94-1.02.62-1.02.62-3.15z" aria-label="100" font-weight="400" font-size="15.84" letter-spacing="0" word-spacing="0" font-family="FreeSans" fill="#fff" stroke-width=".4"/>
    </g>
  </g>
  </symbol>

  <symbol id="chip_500" viewBox="0 0 50 50">
    <g transform="matrix(.98973 0 0 .9838 -73.32 -65.21)">
    <ellipse ry="25.15" rx="25" cy="91.7" cx="99.34" fill="#b046ae" stroke="#000" stroke-width=".53"/>
    <circle cy="91.7" cx="99.34" r="20.42" fill="none" stroke="#fff" stroke-width="4.16" stroke-dasharray="12.48186394,12.48186394"/>
    <g style="line-height:1.25">
      <path style="-inkscape-font-specification:'FreeSans, Normal';font-variant-ligatures:normal;font-variant-caps:normal;font-variant-numeric:normal;font-feature-settings:normal;text-align:start" d="M94.19 87.42v1.01h-4.62l-.44 2.3q.93-.5 2.05-.5 1.6 0 2.58.77 1 .76 1 1.98 0 1.3-1.06 2.12-1.06.83-2.74.83-.64 0-1.18-.1-.54-.11-.9-.25-.34-.15-.64-.38-.28-.25-.43-.42-.15-.19-.29-.45-.12-.28-.15-.39l-.08-.3h1.37q.49 1.38 2.27 1.38 1.13 0 1.77-.5.66-.52.66-1.4 0-.92-.66-1.45-.66-.53-1.77-.53-.64 0-1.1.17-.45.17-.93.6h-1.27l.83-4.49zm1.93 4.25q0-1.03.23-1.82.24-.79.6-1.23.36-.46.86-.73.5-.28.95-.38.47-.09.99-.09 3.63 0 3.63 4.32 0 2.04-.94 3.12-.93 1.07-2.7 1.07-1.78 0-2.7-1.08-.92-1.1-.92-3.18zm5.85-.02q0-3.32-2.22-3.32t-2.22 3.36q0 3.39 2.19 3.39 1.15 0 1.7-.84.55-.83.55-2.59zm2.86.02q0-1.03.23-1.82t.6-1.23q.35-.46.85-.73.5-.28.96-.38.47-.09.98-.09 3.63 0 3.63 4.32 0 2.04-.94 3.12-.92 1.07-2.69 1.07-1.78 0-2.7-1.08-.92-1.1-.92-3.18zm5.85-.02q0-3.32-2.23-3.32-2.22 0-2.22 3.36 0 3.39 2.2 3.39 1.15 0 1.7-.84.54-.83.54-2.59z" aria-label="500" font-weight="400" font-size="13.48" letter-spacing="0" word-spacing="0" font-family="FreeSans" fill="#fff" stroke-width=".34"/>
    </g>
  </g>
  </symbol>

  <symbol id="chip_1000" viewBox="0 0 50 50">
    <g transform="matrix(.98973 0 0 .9838 -137.21 -63.39)">
    <ellipse ry="25.15" rx="25" cy="89.85" cx="163.9" fill="#d7e915" stroke="#000" stroke-width=".53"/>
    <circle cx="163.9" cy="89.85" r="20.42" fill="none" stroke="#fff" stroke-width="4.16" stroke-dasharray="12.48186394,12.48186394"/>
    <g style="line-height:1.25">
      <path style="-inkscape-font-specification:'FreeSans, Normal';font-variant-ligatures:normal;font-variant-caps:normal;font-variant-numeric:normal;font-feature-settings:normal;text-align:start" d="M155.56 87.02h-3.46v-1.14q2.25-.24 2.93-.65.69-.42 1.2-1.91h1.27v12.87h-1.94zm10.38 4.54v4.63h-2.05V82.96h2.05v6.7l8-6.7h2.66l-6.55 5.39 6.61 7.84h-2.42l-5.67-6.79z" aria-label="1K" font-weight="400" font-size="20.01" letter-spacing="0" word-spacing="0" font-family="FreeSans" fill="#fff" stroke-width=".5"/>
    </g>
  </g>
  </symbol>

</svg>