<svg xmlns="http://www.w3.org/2000/svg" viewBox="0 0 50 50">
  <g id="chip_100" transform="matrix(.98973 0 0 .9838 -6.28 -67.03)">
    <ellipse ry="25.15" rx="25" cy="93.55" cx="31.6" stroke="#000" stroke-width=".53"/>
    <circle cx="31.6" cy="93.55" r="20.42" fill="none" stroke="#fff" stroke-width="4.16" stroke-dasharray="12.48186394,12.48186394"/>
    <g style="line-height:1.25">
      <path style="-inkscape-font-specification:'FreeSans, Normal';font-variant-ligatures:normal;font-variant-caps:normal;font-variant-numeric:normal;font-feature-settings:normal;text-align:start" d="M20.47 90.04h-2.79v-.89q1.81-.18 2.36-.5.55-.33.96-1.5h1.03V97.2h-1.56zm6.04 2.3q0-1.26.26-2.23.27-.96.68-1.5.4-.55.97-.89.57-.34 1.09-.45.53-.11 1.11-.11 4.12 0 4.12 5.26 0 2.48-1.07 3.8-1.04 1.3-3.05 1.3-2.02 0-3.07-1.32-1.04-1.33-1.04-3.86zm6.63-.03q0-4.05-2.52-4.05-2.51 0-2.51 4.09 0 4.13 2.48 4.13 1.31 0 1.93-1.02.62-1.02.62-3.15zm3.24.03q0-1.26.27-2.23.27-.96.67-1.5.41-.55.98-.89.57-.34 1.08-.45.53-.11 1.12-.11 4.11 0 4.11 5.26 0 2.48-1.06 3.8-1.05 1.3-3.05 1.3-2.02 0-3.07-1.32-1.05-1.33-1.05-3.86zm6.64-.03q0-4.05-2.52-4.05t-2.52 4.09q0 4.13 2.48 4.13 1.31 0 1.94-1.02.62-1.02.62-3.15z" aria-label="100" font-weight="400" font-size="15.84" letter-spacing="0" word-spacing="0" font-family="FreeSans" fill="#fff" stroke-width=".4"/>
    </g>
  </g>
</svg>
