<svg xmlns="http://www.w3.org/2000/svg" viewBox="0 0 50 50">
  <g id="chip_500" transform="matrix(.98973 0 0 .9838 -73.32 -65.21)">
    <ellipse ry="25.15" rx="25" cy="91.7" cx="99.34" fill="#b046ae" stroke="#000" stroke-width=".53"/>
    <circle cy="91.7" cx="99.34" r="20.42" fill="none" stroke="#fff" stroke-width="4.16" stroke-dasharray="12.48186394,12.48186394"/>
    <g style="line-height:1.25">
      <path style="-inkscape-font-specification:'FreeSans, Normal';font-variant-ligatures:normal;font-variant-caps:normal;font-variant-numeric:normal;font-feature-settings:normal;text-align:start" d="M94.19 87.42v1.01h-4.62l-.44 2.3q.93-.5 2.05-.5 1.6 0 2.58.77 1 .76 1 1.98 0 1.3-1.06 2.12-1.06.83-2.74.83-.64 0-1.18-.1-.54-.11-.9-.25-.34-.15-.64-.38-.28-.25-.43-.42-.15-.19-.29-.45-.12-.28-.15-.39l-.08-.3h1.37q.49 1.38 2.27 1.38 1.13 0 1.77-.5.66-.52.66-1.4 0-.92-.66-1.45-.66-.53-1.77-.53-.64 0-1.1.17-.45.17-.93.6h-1.27l.83-4.49zm1.93 4.25q0-1.03.23-1.82.24-.79.6-1.23.36-.46.86-.73.5-.28.95-.38.47-.09.99-.09 3.63 0 3.63 4.32 0 2.04-.94 3.12-.93 1.07-2.7 1.07-1.78 0-2.7-1.08-.92-1.1-.92-3.18zm5.85-.02q0-3.32-2.22-3.32t-2.22 3.36q0 3.39 2.19 3.39 1.15 0 1.7-.84.55-.83.55-2.59zm2.86.02q0-1.03.23-1.82t.6-1.23q.35-.46.85-.73.5-.28.96-.38.47-.09.98-.09 3.63 0 3.63 4.32 0 2.04-.94 3.12-.92 1.07-2.69 1.07-1.78 0-2.7-1.08-.92-1.1-.92-3.18zm5.85-.02q0-3.32-2.23-3.32-2.22 0-2.22 3.36 0 3.39 2.2 3.39 1.15 0 1.7-.84.54-.83.54-2.59z" aria-label="500" font-weight="400" font-size="13.48" letter-spacing="0" word-spacing="0" font-family="FreeSans" fill="#fff" stroke-width=".34"/>
    </g>
  </g>
</svg>
