<svg xmlns="http://www.w3.org/2000/svg" viewBox="0 0 50 50">
  <g id="chip_5" transform="translate(0 -58.81)">
    <circle cx="25" cy="83.81" r="24.74" fill="#d80000" stroke="#000" stroke-width=".52"/>
    <ellipse cy="83.81" cx="25" rx="20.21" ry="20.09" fill="none" stroke="#fff" stroke-width="4.11" stroke-dasharray="12.31663134,12.31663134"/>
    <g style="line-height:1.25">
      <path d="M32.93 73.68v2.01H23.5l-.9 4.57q1.9-1 4.2-1 3.25 0 5.27 1.53 2.04 1.5 2.04 3.92 0 2.59-2.17 4.23-2.18 1.64-5.6 1.64-1.3 0-2.42-.21-1.1-.2-1.82-.49-.7-.3-1.32-.76-.57-.48-.89-.83-.29-.37-.58-.9-.25-.55-.31-.76-.07-.2-.17-.6h2.82q.99 2.75 4.63 2.75 2.3 0 3.61-1.02 1.34-1.01 1.34-2.77 0-1.82-1.34-2.86-1.34-1.06-3.6-1.06-1.32 0-2.25.34-.92.33-1.91 1.18h-2.6l1.7-8.9z" style="-inkscape-font-specification:'FreeSans, Normal';font-variant-ligatures:normal;font-variant-caps:normal;font-variant-numeric:normal;font-feature-settings:normal;text-align:start" aria-label="5" font-weight="400" font-size="27.52" letter-spacing="0" word-spacing="0" font-family="FreeSans" fill="#fff"/>
    </g>
  </g>
</svg>
